<?xml version="1.0" encoding="utf-8"?>
<!-- Generator: Adobe Illustrator 16.0.0, SVG Export Plug-In . SVG Version: 6.00 Build 0)  -->
<!DOCTYPE svg PUBLIC "-//W3C//DTD SVG 1.1//EN" "http://www.w3.org/Graphics/SVG/1.1/DTD/svg11.dtd">
<svg version="1.1" id="Layer_1" xmlns="http://www.w3.org/2000/svg" xmlns:xlink="http://www.w3.org/1999/xlink" x="0px" y="0px"
	 width="367.634px" height="115.132px" viewBox="0 0 367.634 115.132" enable-background="new 0 0 367.634 115.132"
	 xml:space="preserve">
<g>
	<g>
		<path fill="#130E2D" stroke="#FFFFFF" stroke-miterlimit="10" d="M126.112,71.24V17.544c0-2.79,0.634-4.882,1.907-6.276
			c1.27-1.395,2.913-2.092,4.927-2.092c2.076,0,3.758,0.689,5.044,2.068c1.286,1.38,1.93,3.48,1.93,6.3V71.24
			c0,2.82-0.644,4.929-1.93,6.324c-1.286,1.395-2.968,2.091-5.044,2.091c-1.984,0-3.619-0.704-4.905-2.114
			C126.755,76.131,126.112,74.031,126.112,71.24z"/>
		<path fill="#130E2D" stroke="#FFFFFF" stroke-miterlimit="10" d="M174.68,17.451l26.545,40.168v-40.54
			c0-2.634,0.566-4.609,1.698-5.927c1.131-1.317,2.657-1.976,4.579-1.976c1.984,0,3.55,0.659,4.695,1.976
			c1.146,1.318,1.721,3.293,1.721,5.927v53.604c0,5.982-2.48,8.973-7.438,8.973c-1.239,0-2.356-0.179-3.347-0.534
			c-0.992-0.356-1.923-0.921-2.79-1.697c-0.869-0.773-1.675-1.682-2.418-2.72c-0.744-1.038-1.488-2.099-2.23-3.184l-25.896-39.704
			v39.936c0,2.604-0.604,4.573-1.814,5.905c-1.208,1.332-2.759,1.998-4.649,1.998c-1.952,0-3.517-0.673-4.695-2.021
			c-1.179-1.349-1.766-3.31-1.766-5.882V19.171c0-2.232,0.247-3.982,0.743-5.254c0.588-1.395,1.565-2.534,2.929-3.417
			c1.364-0.883,2.837-1.325,4.417-1.325c1.24,0,2.302,0.202,3.185,0.604c0.883,0.404,1.658,0.946,2.324,1.627
			c0.666,0.682,1.349,1.566,2.046,2.65C173.215,15.142,173.936,16.272,174.68,17.451z"/>
		<path fill="#130E2D" stroke="#FFFFFF" stroke-miterlimit="10" d="M271.947,14.057c0.698-1.084,1.38-1.968,2.046-2.65
			c0.666-0.682,1.44-1.224,2.324-1.627c0.883-0.402,1.945-0.604,3.186-0.604c1.58,0,3.052,0.441,4.417,1.325
			c1.363,0.883,2.339,2.022,2.929,3.417c0.496,1.271,0.742,3.022,0.742,5.254v52.581c0,2.572-0.587,4.533-1.767,5.882
			c-1.177,1.349-2.741,2.021-4.694,2.021c-1.89,0-3.441-0.666-4.648-1.998c-1.211-1.332-1.813-3.302-1.813-5.905V31.816
			l-25.895,39.704c-0.746,1.085-1.489,2.146-2.233,3.184s-1.55,1.946-2.417,2.72c-0.867,0.776-1.797,1.341-2.789,1.697
			c-0.992,0.355-2.107,0.534-3.348,0.534c-4.96,0-7.439-2.99-7.439-8.973V17.079c0-2.634,0.574-4.609,1.72-5.927
			c1.149-1.317,2.714-1.976,4.695-1.976c1.923,0,3.45,0.659,4.58,1.976c1.131,1.318,1.697,3.293,1.697,5.927v40.54l26.547-40.168
			C270.53,16.272,271.25,15.142,271.947,14.057z"/>
		<path fill="#130E2D" stroke="#FFFFFF" stroke-miterlimit="10" d="M334.021,9.176c7.067,0,13.133,1.434,18.201,4.3
			c5.067,2.868,8.904,6.943,11.506,12.227c2.604,5.285,3.906,11.492,3.906,18.62c0,5.27-0.714,10.058-2.14,14.366
			c-1.425,4.308-3.564,8.043-6.415,11.203c-2.852,3.162-6.354,5.579-10.507,7.253c-4.154,1.675-8.911,2.511-14.273,2.511
			c-5.33,0-10.104-0.859-14.319-2.581c-4.215-1.718-7.733-4.144-10.554-7.275c-2.82-3.13-4.95-6.895-6.392-11.297
			c-1.441-4.4-2.163-9.158-2.163-14.272c0-5.237,0.753-10.042,2.256-14.412c1.502-4.371,3.68-8.09,6.532-11.158
			c2.852-3.069,6.323-5.417,10.414-7.044C324.165,9.989,328.815,9.176,334.021,9.176z M353.64,44.229
			c0-4.99-0.806-9.313-2.417-12.971c-1.611-3.657-3.914-6.423-6.904-8.299c-2.992-1.875-6.424-2.812-10.298-2.812
			c-2.759,0-5.308,0.519-7.647,1.557c-2.341,1.039-4.355,2.55-6.044,4.533c-1.689,1.984-3.023,4.518-3.999,7.601
			c-0.976,3.084-1.463,6.548-1.463,10.391c0,3.875,0.487,7.376,1.463,10.507s2.356,5.725,4.138,7.787
			c1.783,2.063,3.828,3.603,6.137,4.626c2.31,1.022,4.844,1.534,7.603,1.534c3.533,0,6.779-0.883,9.739-2.651
			c2.959-1.765,5.314-4.491,7.066-8.181C352.765,54.163,353.64,49.622,353.64,44.229z"/>
	</g>
	<g>
		<path fill="#130E2D" stroke="#FFFFFF" stroke-miterlimit="10" d="M131.966,99.498h-1.32v5.977c0,0.79-0.173,1.369-0.52,1.74
			c-0.347,0.373-0.799,0.558-1.358,0.558c-0.601,0-1.066-0.193-1.397-0.583c-0.33-0.389-0.495-0.96-0.495-1.715V91.156
			c0-0.813,0.182-1.398,0.546-1.763c0.364-0.365,0.953-0.546,1.765-0.546h6.131c0.846,0,1.569,0.034,2.17,0.107
			c0.601,0.072,1.142,0.219,1.625,0.438c0.583,0.244,1.1,0.598,1.548,1.054s0.789,0.987,1.022,1.592
			c0.232,0.605,0.349,1.247,0.349,1.925c0,1.387-0.392,2.495-1.174,3.324c-0.783,0.831-1.97,1.417-3.562,1.764
			c0.668,0.356,1.308,0.883,1.917,1.575c0.609,0.694,1.153,1.432,1.631,2.214c0.478,0.784,0.851,1.49,1.117,2.121
			c0.267,0.63,0.399,1.064,0.399,1.303c0,0.242-0.078,0.485-0.235,0.729c-0.156,0.24-0.371,0.432-0.641,0.569
			c-0.271,0.141-0.583,0.21-0.939,0.21c-0.424,0-0.779-0.1-1.066-0.296c-0.288-0.2-0.535-0.451-0.743-0.756
			c-0.207-0.307-0.488-0.753-0.844-1.346l-1.51-2.514c-0.542-0.923-1.026-1.625-1.454-2.108c-0.428-0.48-0.861-0.813-1.302-0.988
			C133.189,99.586,132.635,99.498,131.966,99.498z M134.125,91.678h-3.479v5.116h3.376c0.906,0,1.667-0.08,2.285-0.236
			s1.09-0.423,1.416-0.799c0.325-0.377,0.488-0.896,0.488-1.556c0-0.516-0.131-0.971-0.394-1.363
			c-0.262-0.395-0.626-0.688-1.091-0.883C136.286,91.771,135.419,91.678,134.125,91.678z"/>
		<path fill="#130E2D" stroke="#FFFFFF" stroke-miterlimit="10" d="M168.344,88.529c1.93,0,3.586,0.393,4.97,1.176
			c1.383,0.782,2.431,1.895,3.142,3.336c0.711,1.445,1.066,3.139,1.066,5.085c0,1.438-0.196,2.747-0.584,3.923
			c-0.389,1.175-0.973,2.196-1.751,3.06c-0.778,0.862-1.735,1.522-2.869,1.979c-1.134,0.458-2.433,0.685-3.897,0.685
			c-1.456,0-2.759-0.233-3.91-0.702c-1.15-0.472-2.111-1.133-2.881-1.988c-0.77-0.854-1.352-1.883-1.745-3.083
			c-0.394-1.202-0.59-2.501-0.59-3.898c0-1.43,0.205-2.742,0.615-3.934c0.411-1.194,1.005-2.21,1.784-3.047
			c0.777-0.838,1.727-1.479,2.843-1.923C165.654,88.752,166.923,88.529,168.344,88.529z M173.701,98.101
			c0-1.363-0.22-2.542-0.66-3.541c-0.439-0.999-1.068-1.755-1.884-2.266c-0.817-0.512-1.754-0.768-2.813-0.768
			c-0.752,0-1.448,0.142-2.087,0.425c-0.64,0.284-1.189,0.697-1.65,1.236c-0.461,0.543-0.825,1.235-1.091,2.076
			c-0.266,0.843-0.4,1.788-0.4,2.837c0,1.058,0.134,2.014,0.4,2.869c0.267,0.855,0.643,1.563,1.13,2.126
			c0.486,0.563,1.045,0.984,1.676,1.264c0.63,0.28,1.322,0.418,2.075,0.418c0.964,0,1.851-0.241,2.659-0.725
			c0.807-0.48,1.451-1.225,1.929-2.232C173.462,100.813,173.701,99.573,173.701,98.101z"/>
		<path fill="#130E2D" stroke="#FFFFFF" stroke-miterlimit="10" d="M203.25,107.456h-5.688c-0.818,0-1.404-0.183-1.756-0.553
			c-0.352-0.368-0.528-0.952-0.528-1.758V91.156c0-0.818,0.18-1.408,0.54-1.77c0.359-0.359,0.942-0.539,1.744-0.539h6.031
			c0.889,0,1.658,0.055,2.311,0.164c0.651,0.11,1.235,0.323,1.752,0.637c0.439,0.261,0.829,0.593,1.167,0.995
			c0.338,0.403,0.598,0.846,0.773,1.332c0.179,0.488,0.267,1.002,0.267,1.542c0,1.863-0.931,3.225-2.792,4.089
			c2.446,0.779,3.668,2.293,3.668,4.544c0,1.04-0.267,1.979-0.799,2.812c-0.533,0.833-1.252,1.449-2.158,1.847
			c-0.566,0.238-1.219,0.404-1.954,0.501C205.091,107.406,204.232,107.456,203.25,107.456z M199.047,91.678v4.81h3.453
			c0.939,0,1.665-0.088,2.178-0.266c0.513-0.177,0.902-0.517,1.174-1.016c0.212-0.354,0.318-0.753,0.318-1.192
			c0-0.939-0.335-1.563-1.003-1.871c-0.669-0.311-1.688-0.465-3.06-0.465H199.047z M202.97,99.193h-3.923v5.433h4.05
			c2.547,0,3.822-0.919,3.822-2.756c0-0.938-0.33-1.62-0.99-2.043C205.268,99.404,204.282,99.193,202.97,99.193z"/>
		<path fill="#130E2D" stroke="#FFFFFF" stroke-miterlimit="10" d="M236.747,88.529c1.93,0,3.587,0.393,4.97,1.176
			c1.384,0.782,2.431,1.895,3.142,3.336c0.711,1.445,1.067,3.139,1.067,5.085c0,1.438-0.196,2.747-0.586,3.923
			c-0.388,1.175-0.972,2.196-1.751,3.06c-0.778,0.862-1.735,1.522-2.867,1.979c-1.136,0.458-2.435,0.685-3.897,0.685
			c-1.457,0-2.759-0.233-3.909-0.702c-1.151-0.472-2.113-1.133-2.883-1.988c-0.769-0.854-1.352-1.883-1.744-3.083
			c-0.394-1.202-0.59-2.501-0.59-3.898c0-1.43,0.203-2.742,0.614-3.934c0.411-1.194,1.004-2.21,1.783-3.047
			c0.779-0.838,1.727-1.479,2.844-1.923C234.056,88.752,235.327,88.529,236.747,88.529z M242.103,98.101
			c0-1.363-0.22-2.542-0.659-3.541s-1.069-1.755-1.885-2.266c-0.816-0.512-1.755-0.768-2.813-0.768
			c-0.754,0-1.448,0.142-2.088,0.425c-0.639,0.284-1.188,0.697-1.649,1.236c-0.463,0.543-0.826,1.235-1.093,2.076
			c-0.266,0.843-0.399,1.788-0.399,2.837c0,1.058,0.134,2.014,0.399,2.869c0.267,0.855,0.643,1.563,1.131,2.126
			c0.486,0.563,1.044,0.984,1.677,1.264c0.629,0.28,1.321,0.418,2.074,0.418c0.964,0,1.852-0.241,2.659-0.725
			c0.808-0.48,1.45-1.225,1.93-2.232C241.865,100.813,242.103,99.573,242.103,98.101z"/>
		<path fill="#130E2D" stroke="#FFFFFF" stroke-miterlimit="10" d="M274.802,91.957h-4.112v13.518c0,0.779-0.175,1.357-0.522,1.733
			c-0.347,0.378-0.796,0.564-1.346,0.564c-0.558,0-1.013-0.189-1.363-0.569c-0.352-0.381-0.528-0.955-0.528-1.729V91.957h-4.112
			c-0.643,0-1.122-0.142-1.435-0.424c-0.312-0.283-0.47-0.66-0.47-1.126c0-0.481,0.163-0.862,0.489-1.141
			c0.326-0.279,0.798-0.419,1.415-0.419h11.984c0.651,0,1.136,0.145,1.452,0.431c0.317,0.288,0.476,0.666,0.476,1.129
			c0,0.466-0.159,0.843-0.48,1.126C275.926,91.815,275.445,91.957,274.802,91.957z"/>
		<path fill="#130E2D" stroke="#FFFFFF" stroke-miterlimit="10" d="M293.674,105.475V90.815c0-0.761,0.175-1.334,0.521-1.714
			c0.346-0.381,0.794-0.572,1.345-0.572c0.568,0,1.027,0.189,1.377,0.566c0.352,0.376,0.526,0.948,0.526,1.72v14.659
			c0,0.773-0.175,1.348-0.526,1.729c-0.35,0.38-0.809,0.569-1.377,0.569c-0.541,0-0.987-0.191-1.339-0.576
			C293.851,106.811,293.674,106.237,293.674,105.475z"/>
		<path fill="#130E2D" stroke="#FFFFFF" stroke-miterlimit="10" d="M332.071,101.579c0,0.593-0.146,1.233-0.438,1.923
			c-0.293,0.691-0.751,1.367-1.377,2.031c-0.628,0.664-1.425,1.204-2.399,1.618c-0.972,0.415-2.107,0.621-3.403,0.621
			c-0.98,0-1.874-0.093-2.677-0.279c-0.804-0.185-1.533-0.475-2.189-0.869c-0.656-0.394-1.259-0.911-1.81-1.556
			c-0.491-0.582-0.909-1.235-1.256-1.961c-0.348-0.723-0.607-1.495-0.782-2.314c-0.172-0.822-0.258-1.694-0.258-2.615
			c0-1.499,0.216-2.839,0.652-4.024s1.059-2.197,1.873-3.04c0.811-0.843,1.764-1.483,2.855-1.923s2.254-0.661,3.491-0.661
			c1.505,0,2.848,0.302,4.024,0.902c1.176,0.602,2.076,1.342,2.702,2.228c0.626,0.884,0.94,1.72,0.94,2.508
			c0,0.43-0.153,0.813-0.458,1.142c-0.305,0.33-0.672,0.495-1.105,0.495c-0.48,0-0.842-0.115-1.084-0.342
			c-0.241-0.229-0.509-0.622-0.806-1.182c-0.491-0.923-1.068-1.612-1.733-2.068c-0.664-0.458-1.481-0.686-2.455-0.686
			c-1.551,0-2.782,0.588-3.701,1.765c-0.918,1.176-1.375,2.847-1.375,5.013c0,1.447,0.203,2.651,0.607,3.611
			c0.406,0.961,0.982,1.679,1.727,2.151c0.744,0.475,1.616,0.711,2.615,0.711c1.082,0,2-0.268,2.747-0.806
			c0.749-0.538,1.313-1.327,1.695-2.367c0.161-0.491,0.359-0.892,0.598-1.201c0.236-0.308,0.617-0.463,1.142-0.463
			c0.448,0,0.833,0.157,1.154,0.47C331.91,100.724,332.071,101.113,332.071,101.579z"/>
		<path fill="#130E2D" stroke="#FFFFFF" stroke-miterlimit="10" d="M364.16,101.87c0,1.126-0.29,2.138-0.871,3.035
			c-0.579,0.896-1.429,1.599-2.544,2.106c-1.117,0.508-2.442,0.761-3.974,0.761c-1.837,0-3.351-0.346-4.544-1.039
			c-0.846-0.499-1.533-1.167-2.063-2.001c-0.53-0.832-0.793-1.642-0.793-2.431c0-0.456,0.158-0.848,0.475-1.174
			c0.318-0.325,0.723-0.488,1.214-0.488c0.396,0,0.732,0.127,1.009,0.38c0.274,0.255,0.51,0.631,0.704,1.131
			c0.236,0.593,0.493,1.087,0.768,1.485c0.274,0.397,0.663,0.726,1.162,0.983c0.5,0.258,1.154,0.387,1.968,0.387
			c1.116,0,2.024-0.26,2.723-0.779c0.697-0.521,1.047-1.171,1.047-1.948c0-0.619-0.189-1.12-0.566-1.505
			c-0.376-0.387-0.862-0.68-1.46-0.883c-0.596-0.203-1.394-0.419-2.393-0.647c-1.337-0.312-2.455-0.68-3.356-1.098
			c-0.9-0.419-1.616-0.99-2.145-1.715c-0.529-0.722-0.794-1.621-0.794-2.696c0-1.022,0.28-1.934,0.838-2.729
			c0.558-0.794,1.366-1.406,2.424-1.833c1.059-0.428,2.303-0.643,3.732-0.643c1.143,0,2.13,0.144,2.964,0.426
			c0.834,0.283,1.525,0.66,2.076,1.129c0.55,0.47,0.952,0.963,1.205,1.479c0.255,0.517,0.382,1.022,0.382,1.512
			c0,0.448-0.16,0.853-0.477,1.213c-0.317,0.359-0.714,0.539-1.187,0.539c-0.432,0-0.76-0.106-0.984-0.323
			c-0.225-0.216-0.468-0.569-0.729-1.061c-0.339-0.702-0.745-1.25-1.22-1.644c-0.474-0.395-1.234-0.591-2.284-0.591
			c-0.973,0-1.757,0.215-2.354,0.642c-0.597,0.426-0.895,0.942-0.895,1.541c0,0.373,0.101,0.694,0.304,0.966
			c0.204,0.27,0.482,0.503,0.839,0.697c0.354,0.195,0.714,0.349,1.079,0.458c0.362,0.11,0.964,0.271,1.803,0.483
			c1.047,0.243,2,0.516,2.849,0.813c0.851,0.296,1.573,0.654,2.171,1.079c0.597,0.423,1.063,0.957,1.396,1.604
			C363.992,100.138,364.16,100.932,364.16,101.87z"/>
	</g>
	<g>
		<path fill="#BE254F" d="M98.919,27.395L52.585,0.644c-1.146-0.662-3.022-0.662-4.168,0L2.083,27.395
			c-0.666,0.385-1.255,1.098-1.637,1.885l15.818,8.999c0.261-0.539,0.664-1.027,1.12-1.29l31.691-18.297
			c0.784-0.453,2.067-0.453,2.851,0l31.691,18.297c0.456,0.263,0.859,0.75,1.121,1.29l15.818-8.999
			C100.174,28.492,99.585,27.78,98.919,27.395z"/>
		<g>
			<path fill="#7D223B" d="M85.044,39.458v36.595c0,0.379-0.118,0.792-0.306,1.179l15.818,8.999
				c0.275-0.566,0.446-1.171,0.446-1.724V31.004c0-0.554-0.17-1.158-0.446-1.725l-15.818,8.999
				C84.927,38.665,85.044,39.079,85.044,39.458z"/>
		</g>
		<polygon fill="none" points="50.575,57.797 50.501,57.754 50.483,57.766 		"/>
		<g>
			<path fill="#7D223B" d="M31.852,67.635c0,0.203,0.071,0.423,0.171,0.632l18.46-10.501l0.092,0.031L32.023,47.243
				c-0.101,0.209-0.171,0.429-0.171,0.633V67.635z"/>
		</g>
		<g>
			<path fill="#7D223B" d="M69.151,47.876c0-0.204-0.071-0.424-0.172-0.633L50.483,57.766l0.092,0.031l18.404,10.47
				c0.101-0.209,0.172-0.429,0.172-0.632V47.876z"/>
		</g>
		<g>
			<path fill="#BE254F" d="M68.381,46.544l-17.11-9.879c-0.424-0.245-1.116-0.245-1.539,0l-17.11,9.879
				c-0.248,0.142-0.457,0.408-0.599,0.699l18.478,10.511l18.478-10.511C68.838,46.952,68.628,46.686,68.381,46.544z"/>
		</g>
		<g>
			<path fill="#531638" d="M32.622,68.966l17.11,9.879c0.423,0.244,1.115,0.244,1.539,0l17.11-9.879
				c0.247-0.143,0.457-0.407,0.598-0.699l-18.404-10.47l-0.092-0.031l-18.46,10.501C32.165,68.559,32.375,68.823,32.622,68.966z"/>
		</g>
		<path fill="#7D223B" d="M15.958,39.458c0-0.378,0.117-0.792,0.306-1.179L0.446,29.279C0.171,29.846,0,30.45,0,31.004v53.503
			c0,0.553,0.171,1.157,0.446,1.724l15.512-8.824V39.458z"/>
		<path fill="#531638" d="M92.648,81.731l-6.828-3.885l0,0l-1.082-0.615c-0.072,0.149-0.156,0.289-0.247,0.426
			c-0.034,0.025-0.063,0.054-0.085,0.087c-0.183,0.283-1.272,1.056-1.865,1.398l-14.217,8.208l0,0l-0.889,0.513
			c-0.592,0.343-0.593,0.902,0,1.245l1.226,0.71l0,0l7.06,4.085l5.502,3.184l0,0L82.3,97.71l8.309-4.799l7.232-4.176l0,0
			l1.077-0.621c0.666-0.384,1.255-1.097,1.638-1.884L92.648,81.731z"/>
		<path fill="#531638" d="M65.346,106.254L32.929,87.497c-0.593-0.343-1.077-0.063-1.077,0.621v2.191v13.747v0.713
			c0,0.293,0.208,0.652,0.462,0.799l0.615,0.356l0,0l14.411,8.317c0,0.002,0,0.002,0.001,0.002l0.615,0.354
			c0.128,0.073,0.21,0.09,0.24,0.057c0.494,0.207,1.031,0.388,1.437,0.477h1.737c0.668-0.146,1.7-0.546,2.292-0.89l11.684-6.744
			C65.938,107.156,65.939,106.596,65.346,106.254z"/>
		<path fill="#531638" d="M14.878,78.021L14.878,78.021l-6.676,3.798L0.446,86.23c0.382,0.787,0.971,1.5,1.637,1.884l1.077,0.621
			c0.001,0,9.381,5.418,9.381,5.418l2.34,1.351c0.571,0.329,1.038,0.078,1.071-0.555l0.006,0.004v-0.07V77.406L14.878,78.021z"/>
	</g>
</g>
<g>
</g>
<g>
</g>
<g>
</g>
<g>
</g>
<g>
</g>
<g>
</g>
</svg>
